<svg width="533" height="522" viewBox="0 0 533 522" fill="none" xmlns="http://www.w3.org/2000/svg">
<path d="M205.037 370.122C236.834 389.914 274.558 401.526 315.113 401.526C428.422 401.526 520.308 311.668 520.308 200.829C520.308 89.8584 428.422 0 315.113 0C201.804 0 109.917 89.8584 109.917 200.697C109.917 240.942 122.043 278.416 142.791 309.82L149.258 318.925L2.94028 462.223L49.1531 506.691L195.471 363.524L205.037 370.122ZM429.769 313.251C399.185 343.204 358.496 359.698 315.247 359.698C271.999 359.698 231.31 343.204 200.726 313.251C170.142 283.298 153.3 243.449 153.3 201.093C153.3 158.737 170.142 118.888 200.726 88.9348C231.31 58.982 271.999 42.4881 315.247 42.4881C358.496 42.4881 399.185 58.982 429.769 88.9348C460.353 118.888 477.194 158.737 477.194 201.093C477.194 243.449 460.353 283.298 429.769 313.251Z" fill="url(#paint0_linear_263_556)"/>
<path d="M318.421 98.0006C317.068 98.0222 315.781 98.5859 314.839 99.5684C313.895 100.551 313.376 101.871 313.396 103.241V118.749C313.387 119.434 313.512 120.114 313.764 120.75C314.017 121.385 314.391 121.964 314.865 122.452C315.341 122.939 315.905 123.327 316.529 123.591C317.153 123.856 317.822 123.992 318.5 123.992C319.178 123.992 319.847 123.856 320.471 123.591C321.095 123.327 321.659 122.939 322.135 122.452C322.609 121.964 322.983 121.385 323.236 120.75C323.488 120.114 323.613 119.434 323.604 118.749V103.241C323.613 102.549 323.485 101.863 323.227 101.222C322.972 100.581 322.589 99.9994 322.107 99.5106C321.622 99.0221 321.046 98.6367 320.414 98.3774C319.782 98.1181 319.104 97.99 318.421 98.0006ZM275.134 116.195C274.12 116.197 273.129 116.505 272.288 117.08C271.448 117.656 270.795 118.471 270.415 119.424C270.034 120.376 269.942 121.422 270.15 122.427C270.359 123.433 270.859 124.353 271.586 125.069L282.412 136.034C282.882 136.53 283.445 136.926 284.069 137.199C284.692 137.472 285.363 137.616 286.042 137.623C286.721 137.63 287.395 137.5 288.024 137.24C288.652 136.98 289.224 136.596 289.704 136.109C290.184 135.623 290.563 135.044 290.82 134.408C291.077 133.771 291.205 133.089 291.199 132.401C291.192 131.713 291.049 131.034 290.78 130.402C290.51 129.771 290.119 129.2 289.629 128.724L278.803 117.759C278.326 117.263 277.756 116.869 277.126 116.6C276.496 116.331 275.818 116.193 275.134 116.195ZM361.707 116.195C360.38 116.234 359.121 116.796 358.196 117.759L347.37 128.724C346.879 129.2 346.491 129.771 346.221 130.402C345.952 131.034 345.807 131.713 345.802 132.401C345.793 133.089 345.924 133.771 346.179 134.408C346.437 135.044 346.817 135.623 347.296 136.109C347.775 136.596 348.348 136.98 348.978 137.24C349.604 137.5 350.279 137.63 350.957 137.623C351.637 137.616 352.307 137.472 352.93 137.199C353.554 136.926 354.119 136.53 354.589 136.034L365.416 125.069C366.153 124.343 366.655 123.408 366.859 122.387C367.063 121.366 366.958 120.307 366.559 119.347C366.156 118.388 365.478 117.574 364.613 117.011C363.748 116.448 362.733 116.164 361.707 116.195ZM318.5 134.257C301.647 134.257 287.875 148.205 287.875 165.273C287.875 182.342 301.647 196.29 318.5 196.29C335.352 196.29 349.125 182.342 349.125 165.273C349.125 148.205 335.352 134.257 318.5 134.257ZM318.5 144.596C329.837 144.596 338.917 153.792 338.917 165.273C338.917 176.755 329.837 185.951 318.5 185.951C307.164 185.951 298.083 176.755 298.083 165.273C298.083 153.792 307.164 144.596 318.5 144.596ZM257.25 160.104C256.574 160.094 255.902 160.221 255.274 160.476C254.647 160.732 254.076 161.111 253.594 161.592C253.112 162.073 252.73 162.646 252.469 163.278C252.208 163.91 252.073 164.588 252.073 165.273C252.073 165.959 252.208 166.637 252.469 167.269C252.73 167.901 253.112 168.474 253.594 168.955C254.076 169.436 254.647 169.815 255.274 170.071C255.902 170.326 256.574 170.453 257.25 170.443H272.563C273.239 170.453 273.91 170.326 274.538 170.071C275.166 169.815 275.737 169.436 276.219 168.955C276.7 168.474 277.083 167.901 277.344 167.269C277.605 166.637 277.739 165.959 277.739 165.273C277.739 164.588 277.605 163.91 277.344 163.278C277.083 162.646 276.7 162.073 276.219 161.592C275.737 161.111 275.166 160.732 274.538 160.476C273.91 160.221 273.239 160.094 272.563 160.104H257.25ZM364.438 160.104C363.76 160.094 363.091 160.221 362.461 160.476C361.834 160.732 361.264 161.111 360.782 161.592C360.3 162.073 359.917 162.646 359.657 163.278C359.396 163.91 359.26 164.588 359.26 165.273C359.26 165.959 359.396 166.637 359.657 167.269C359.917 167.901 360.3 168.474 360.782 168.955C361.264 169.436 361.834 169.815 362.461 170.071C363.091 170.326 363.76 170.453 364.438 170.443H379.75C380.428 170.453 381.097 170.326 381.726 170.071C382.353 169.815 382.923 169.436 383.405 168.955C383.887 168.474 384.27 167.901 384.531 167.269C384.792 166.637 384.928 165.959 384.928 165.273C384.928 164.588 384.792 163.91 384.531 163.278C384.27 162.646 383.887 162.073 383.405 161.592C382.923 161.111 382.353 160.732 381.726 160.476C381.097 160.221 380.428 160.094 379.75 160.104H364.438ZM236.833 180.782C222.799 180.782 211.312 192.415 211.312 206.628C211.312 220.841 222.799 232.475 236.833 232.475C250.868 232.475 262.354 220.841 262.354 206.628C262.354 192.415 250.868 180.782 236.833 180.782ZM400.167 180.782C386.133 180.782 374.646 192.415 374.646 206.628C374.646 220.841 386.133 232.475 400.167 232.475C414.2 232.475 425.688 220.841 425.688 206.628C425.688 192.415 414.2 180.782 400.167 180.782ZM236.833 191.12C245.35 191.12 252.146 198.001 252.146 206.628C252.146 215.256 245.35 222.137 236.833 222.137C228.316 222.137 221.521 215.256 221.521 206.628C221.521 198.001 228.316 191.12 236.833 191.12ZM400.167 191.12C408.685 191.12 415.479 198.001 415.479 206.628C415.479 215.256 408.685 222.137 400.167 222.137C391.648 222.137 384.854 215.256 384.854 206.628C384.854 198.001 391.648 191.12 400.167 191.12ZM298.083 206.628C281.263 206.628 267.458 220.609 267.458 237.645V247.843C263.309 244.727 258.234 242.814 252.714 242.814H236.833H220.953C207.251 242.814 196 254.21 196 268.087V279H206.208V268.087C206.208 259.847 212.819 253.153 220.953 253.153H236.833H252.714C260.848 253.153 267.458 259.847 267.458 268.087V273.831V279H277.667V268.087V237.645C277.667 226.249 286.831 216.967 298.083 216.967H338.917C350.169 216.967 359.333 226.249 359.333 237.645V268.087V279H369.542V268.087C369.542 259.847 376.152 253.153 384.287 253.153H400.167H416.046C424.182 253.153 430.792 259.847 430.792 268.087V279H441V268.087C441 254.21 429.748 242.814 416.046 242.814H400.167H384.287C378.766 242.814 373.69 244.727 369.542 247.843V237.645C369.542 220.609 355.738 206.628 338.917 206.628H298.083Z" fill="url(#paint1_linear_263_556)"/>
<defs>
<linearGradient id="paint0_linear_263_556" x1="475.47" y1="64.1808" x2="36.0006" y2="492.2" gradientUnits="userSpaceOnUse">
<stop stop-color="#FBA834"/>
<stop offset="1" stop-color="#B153E0"/>
</linearGradient>
<linearGradient id="paint1_linear_263_556" x1="210.412" y1="120.625" x2="447.206" y2="269.102" gradientUnits="userSpaceOnUse">
<stop stop-color="#B153E0"/>
<stop offset="1" stop-color="#FBA834"/>
</linearGradient>
</defs>
</svg>
